<?xml version="1.0" encoding="UTF-8" standalone="no"?>
<svg
   xmlns:dc="http://purl.org/dc/elements/1.1/"
   xmlns:cc="http://creativecommons.org/ns#"
   xmlns:rdf="http://www.w3.org/1999/02/22-rdf-syntax-ns#"
   xmlns:svg="http://www.w3.org/2000/svg"
   xmlns="http://www.w3.org/2000/svg"
   width="293.42291mm"
   height="338.62mm"
   viewBox="0 0 293.42291 338.62"
   version="1.1"
   id="svg8">
  <defs
     id="defs2" />
  <metadata
     id="metadata5">
    <rdf:RDF>
      <cc:Work
         rdf:about="">
        <dc:format>image/svg+xml</dc:format>
        <dc:type
           rdf:resource="http://purl.org/dc/dcmitype/StillImage" />
        <dc:title></dc:title>
      </cc:Work>
    </rdf:RDF>
  </metadata>
  <g
     id="layer1"
     transform="translate(50.312395,29.187871)">
    <path
       style="fill:#9f83e7;stroke-width:0.264583"
       d="m 75.880465,297.76846 c -11.12498,-6.41498 -22.13223,-12.77014 -24.46057,-14.1225 -2.32833,-1.3524 -15.12755,-8.74284 -28.44271,-16.42325 -13.31515,-7.68037 -26.53109,-15.30392 -29.36875,-16.94116 -2.83765,-1.63724 -9.26703,-5.34585 -14.28749,-8.24135 -5.02047,-2.89547 -13.7418,-7.92585 -19.38073,-11.1786 l -10.25261,-5.9141 V 140.09585 55.244207 l 23.0849,-13.32262 c 12.69669,-7.32744 26.00192,-15.003727 29.56718,-17.058418 3.56526,-2.05469 8.03011,-4.632462 9.92188,-5.728385 3.08429,-1.786758 16.66216,-9.6192596 39.02604,-22.5124713 4.29286,-2.4749209 10.00786,-5.7755719 12.7,-7.3347807 2.69214,-1.559209 8.88339,-5.133971 13.75833,-7.943915 4.87495,-2.809944 10.99324,-6.339554 13.5962,-7.843577 4.62018,-2.669596 5.34826,-2.980135 5.8639,-2.501057 0.13825,0.128441 3.763695,2.251195 8.056565,4.717231 4.29286,2.466037 11.31755,6.510377 15.61041,8.987424 4.29287,2.477046 12.44865,7.1832498 18.12396,10.45823 5.67531,3.2749814 15.43844,8.9058914 21.69583,12.5131334 6.2574,3.6072406 13.22256,7.6270106 15.47813,8.9328216 2.25557,1.305811 6.00604,3.474535 8.33437,4.819388 2.32834,1.34485 6.91224,3.994441 10.18646,5.887976 9.72963,5.626809 40.30446,23.264058 44.51615,25.679368 l 3.9026,2.238058 v 84.857447 84.85744 l -10.2526,5.9141 c -5.63894,3.25275 -14.36026,8.28313 -19.38073,11.1786 -14.06078,8.10937 -18.42973,10.63104 -32.41146,18.70729 -7.13052,4.11876 -19.51302,11.26537 -27.51667,15.88132 -8.00364,4.61595 -24.07158,13.88501 -35.70652,20.59797 -11.63495,6.71293 -21.285025,12.20533 -21.444635,12.20533 -0.1596,0 -9.39245,-5.24864 -20.51743,-11.66365 z m 24.924715,-6.02123 c 2.2333,-1.28648 10.72804,-6.18807 18.87721,-10.89242 8.14916,-4.70431 17.01932,-9.82202 19.71146,-11.37266 2.69213,-1.55062 12.63385,-7.28856 22.0927,-12.75099 9.45886,-5.4624 19.16245,-11.06241 21.56354,-12.44443 4.32988,-2.49222 9.77771,-5.63669 23.28334,-13.43908 14.07911,-8.13371 20.79453,-12.00841 21.89826,-12.63501 0.62066,-0.35235 1.24574,-0.85976 1.38907,-1.12756 0.16933,-0.31643 0.26058,-27.30311 0.26058,-77.07188 0,-72.5537 -0.0243,-76.613694 -0.46302,-77.130872 -0.25466,-0.300252 -3.14192,-2.081681 -6.41614,-3.958733 -5.92884,-3.398893 -16.95969,-9.752962 -23.27272,-13.40571 -1.82485,-1.055867 -13.79541,-7.960894 -26.60124,-15.344502 -26.50178,-15.280436 -30.80471,-17.765839 -35.05729,-20.2493176 -1.67349,-0.977307 -4.76912,-2.762975 -6.87917,-3.968152 -2.11005,-1.205177 -6.03911,-3.46892 -8.73125,-5.03054405 C 105.70251,-8.7954082 96.735695,-13.888712 96.380135,-13.888712 c -0.22405,0 -1.50207,0.640998 -2.84005,1.42444 -1.33798,0.783442 -7.55238,4.3728678 -13.80977,7.9765021 -11.78038,6.7843183 -23.02247,13.2673903 -27.38438,15.7919729 -1.38244,0.800134 -9.83588,5.681056 -18.78541,10.846492 -33.45797001,19.311072 -48.74925,28.133527 -58.7375,33.889167 -4.29287,2.473727 -8.60688,4.960387 -9.58669,5.525912 -0.97982,0.565529 -1.90255,1.254448 -2.05052,1.530935 -0.18055,0.337365 -0.26904,25.691419 -0.26904,77.087661 0,72.55657 0.0243,76.61327 0.46302,77.12332 0.25466,0.2961 4.45161,2.82841 9.32656,5.62736 8.52279,4.89336 13.63711,7.84064 26.65676999,15.36172 3.31060001,1.91244 7.98380001,4.60822 10.38490001,5.99064 2.40109,1.3824 8.94953,5.15829 14.55208,8.39087 9.71279,5.60411 14.68276,8.47436 28.24427,16.31153 3.3106,1.91318 12.62724,7.29208 20.70365,11.95306 8.0764,4.661 16.47031,9.51452 18.65312,10.78563 2.18281,1.27109 4.16557,2.32156 4.40612,2.33442 0.24056,0.013 2.26462,-1.0292 4.497915,-2.31569 z M 128.4999,231.4054 c -11.01225,-2.40617 -19.08817,-10.54494 -21.4222,-21.58891 -0.48548,-2.29714 -0.41281,-8.31652 0.12717,-10.5336 0.24144,-0.9913 0.43898,-2.02511 0.43898,-2.29735 0,-0.5762 -0.37783,-0.80934 -14.155205,-8.73423 -11.61848,-6.68306 -24.18862,-13.93731 -26.59062,-15.34549 -0.94589,-0.55453 -4.45823,-2.58135 -7.80521,-4.50403 -3.34698,-1.92269 -8.01861,-4.61875 -10.38139,-5.99125 l -4.29598,-2.49544 -1.83562,1.07206 c -8.43191,4.9245 -18.79577,5.00024 -27.14326,0.19836 -4.43192,-2.54946 -7.98731,-6.13091 -10.27208,-10.34739 -2.16412,-3.99381 -2.9593,-6.63109 -3.3196,-11.00985 -1.08610001,-13.19922 7.24095,-24.90934 20.26355,-28.49612 2.27558,-0.62676 3.06839,-0.71322 6.5573,-0.7151 2.85681,-0.002 4.50786,0.12645 5.89296,0.45682 4.9474,1.18004 9.13363,3.3959 12.95708,6.85844 1.25478,1.13633 1.47055,1.2408 1.99411,0.96555 0.5546,-0.29157 6.89755,-3.93411 17.9173,-10.28931 2.69214,-1.55257 7.75229,-4.4686 11.24479,-6.48005 20.23414,-11.653552 31.514695,-18.19598 31.730295,-18.40276 0.14949,-0.143367 0.0578,-1.08775 -0.23538,-2.424142 -2.04807,-9.335894 0.78243,-18.703797 7.64077,-25.288075 5.0439,-4.842343 10.58272,-7.278288 17.36834,-7.638508 8.91463,-0.473241 17.07154,3.164708 22.6402,10.09744 2.76841,3.446549 4.59014,7.415775 5.52634,12.040904 0.61723,3.049283 0.43232,8.742232 -0.38241,11.773958 -0.60453,2.249553 -2.16127,5.754271 -3.52571,7.937501 -2.90658,4.6508 -8.58825,9.05591 -14.09074,10.924832 -9.14273,3.10532 -19.57404,0.93273 -26.74873,-5.571132 -1.78348,-1.61673 -2.03139,-1.76019 -2.56029,-1.48159 -0.71481,0.37652 -5.60671,3.19537 -26.117895,15.049852 -8.14239,4.70592 -20.36807,11.75237 -27.64895,15.93589 -3.78354,2.17399 -7.01769,4.09049 -7.18699,4.25889 -0.23394,0.2327 -0.17688,0.78239 0.23776,2.29055 0.80429,2.92534 0.78322,9.00583 -0.0424,12.24443 -0.58096,2.27886 -1.41826,4.57005 -2.24532,6.14411 -0.22938,0.43656 -0.41779,0.86875 -0.41869,0.96042 -0.002,0.19994 3.25904,2.09417 46.9619,27.27886 6.548435,3.77367 12.406155,7.15059 13.017145,7.50427 l 1.1109,0.64305 1.66723,-1.49085 c 5.36165,-4.79445 11.60468,-7.24679 18.44842,-7.24679 8.29537,0 16.49277,3.9978 21.39509,10.43421 0.67207,0.88238 1.30049,1.66386 1.39649,1.73662 0.096,0.0728 0.72414,1.26339 1.39589,2.64583 2.37507,4.88785 3.37445,10.17246 2.8239,14.93243 -0.86854,7.50918 -4.44996,14.05534 -10.15994,18.57045 -4.87699,3.85641 -9.75073,5.60561 -16.17013,5.8035 -2.97018,0.0916 -4.15892,0.0148 -5.99915,-0.38726 z"
       id="path30" />
  </g>
</svg>
