<?xml version="1.0" encoding="UTF-8" standalone="no"?>
<svg
   xmlns:dc="http://purl.org/dc/elements/1.1/"
   xmlns:cc="http://creativecommons.org/ns#"
   xmlns:rdf="http://www.w3.org/1999/02/22-rdf-syntax-ns#"
   xmlns:svg="http://www.w3.org/2000/svg"
   xmlns="http://www.w3.org/2000/svg"
   width="487.51807mm"
   height="279.44455mm"
   viewBox="0 0 487.51807 279.44455"
   version="1.1"
   id="svg8">
  <defs
     id="defs2" />
  <metadata
     id="metadata5">
    <rdf:RDF>
      <cc:Work
         rdf:about="">
        <dc:format>image/svg+xml</dc:format>
        <dc:type
           rdf:resource="http://purl.org/dc/dcmitype/StillImage" />
        <dc:title></dc:title>
      </cc:Work>
    </rdf:RDF>
  </metadata>
  <g
     id="layer1"
     transform="translate(135.33654,-4.9537858)">
    <path
       style="fill:#000000;stroke-width:0.264583"
       d="m -116.77213,284.27213 c -0.59319,-0.26575 -1.6845,-2.4235 -2.1732,-4.29686 -0.49044,-1.8801 0.50239,-4.44736 2.31684,-5.99086 0.57435,-0.48855 6.91853,-3.9112 14.09819,-7.60582 7.179646,-3.69462 13.262269,-6.898 13.51693,-7.11861 1.429777,-1.23858 -0.720325,-5.87534 -2.724441,-5.87534 -0.441298,0 -4.463081,1.96483 -10.084229,4.92661 -15.30554,8.06447 -20.27539,10.47037 -21.23449,10.27963 -3.2611,-0.64862 -5.67152,-2.45612 -6.63309,-4.97396 l -0.48557,-1.27145 0.63794,-0.61458 c 0.35087,-0.33802 8.31747,-4.57303 17.70357,-9.41114 9.38609,-4.8381 18.439956,-9.5085 20.119697,-10.37865 2.531044,-1.31115 3.278688,-1.58189 4.365625,-1.58088 3.645961,0.003 4.884591,1.08285 7.836361,6.82945 1.11479,2.17031 2.73942,5.33548 3.61028,7.03371 1.97951,3.86014 2.19416,5.05568 1.27899,7.12328 -0.40404,0.91282 -1.11227,1.88227 -1.84862,2.53043 -0.71877,0.63269 -4.22742,2.612 -8.81915,4.9751 -4.194011,2.15841 -8.816102,4.54752 -10.27131,5.30912 -9.714943,5.08448 -19.362853,10.00358 -19.947553,10.17048 -0.37947,0.10835 -0.94772,0.0815 -1.26277,-0.0597 z m -16.83857,-28.44976 c -0.72013,-0.79574 -1.54091,-2.93162 -1.69306,-4.40578 -0.19017,-1.84258 0.45539,-3.7684 1.72402,-5.14304 1.10344,-1.19565 5.63498,-3.64325 26.99433,-14.58034 14.70864,-7.53159 13.671738,-7.20904 14.929715,-4.64408 0.886839,1.80823 1.093407,2.96656 0.860896,4.8275 -0.174204,1.39429 -0.313878,1.63455 -1.913422,3.29139 -1.633341,1.69185 -2.130104,1.99498 -9.300999,5.67554 -4.16653,2.13852 -8.528,4.38974 -9.69217,5.00271 -2.2812,1.20111 -6.75864,3.52225 -14.98386,7.76774 -2.85685,1.47458 -5.48753,2.68105 -5.84597,2.68105 -0.35843,0 -0.8442,-0.21271 -1.07948,-0.47269 z m 73.594123,-2.26575 c -2.17881,-0.80431 -3.419,-1.77441 -4.56188,-3.56841 -1.64519,-2.58247 -15.76981,-30.07388 -15.76981,-30.69351 0,-1.05549 0.37591,-1.41523 2.74578,-2.62768 2.23072,-1.14126 2.56395,-1.2354 4.39797,-1.24245 1.68663,-0.006 2.16634,0.0993 3.19713,0.70533 0.66702,0.39213 1.62507,1.16935 2.12902,1.72715 0.52437,0.58041 3.21659,5.48104 6.29454,11.45787 2.95805,5.74403 5.62047,10.70953 5.91647,11.03445 1.16116,1.27456 -0.12874,1.79422 15.40347,-6.20564 8.3517,-4.30154 9.92187,-5.32149 9.92187,-6.44503 0,-0.2982 -1.17315,-2.8264 -2.60699,-5.61822 -1.43385,-2.79182 -4.11275,-8.00299 -5.95313,-11.58038 -2.98333,-5.7991 -3.34613,-6.64905 -3.34613,-7.83904 0,-1.606 0.42826,-2.70127 1.7132,-4.38146 0.75139,-0.98252 1.48841,-1.52502 3.32497,-2.4474 2.66589,-1.33889 3.50764,-1.46134 4.05416,-0.58974 1.34086,2.13842 15.85871,30.68769 16.19696,31.85123 0.49807,1.7133 0.33117,3.10507 -0.5918,4.93489 -1.06868,2.1187 -2.30092,3.05864 -7.51675,5.73371 -2.68269,1.37588 -8.62808,4.44479 -13.21199,6.8198 -14.71652,7.6249 -17.68994,9.04028 -19.31458,9.19395 -0.90139,0.0853 -1.82333,0.002 -2.42248,-0.21942 z m 56.2051404,-27.75479 c -0.25931,-0.33354 -1.38896,-2.46629 -5.92095,-11.17864 -3.6014404,-6.92345 -3.6787904,-7.08639 -3.8423304,-8.09418 -0.25405,-1.56552 0.33956,-3.09628 1.72338,-4.44414 1.02213,-0.99556 3.9439304,-2.60732 15.8813704,-8.76064 10.6190796,-5.47376 14.7068496,-7.70632 14.9135796,-8.14514 0.23556,-0.50004 0.12992,-0.92463 -0.61127,-2.45674 -1.15092,-2.37907 -1.54954,-2.73905 -2.82936,-2.55507 -0.54897,0.0789 -3.55797,1.47544 -6.6866696,3.10339 -23.1677604,12.05485 -26.6750604,13.80857 -27.2506604,13.62588 -1.07395,-0.34086 -2.48451,-4.28825 -2.19654,-6.14691 0.24565,-1.58554 1.26313,-3.33381 2.55755,-4.39448 0.65789,-0.5391 5.81635,-3.37027 11.4632304,-6.29149 5.64687002,-2.92122 12.29111,-6.35884 14.76497,-7.63917 10.0761996,-5.21486 10.3731796,-5.34871 12.1907796,-5.49461 1.24827,-0.1002 2.0218,-0.0129 2.91753,0.32915 2.16239,0.82583 3.11303,2.14716 6.91825,9.61593 3.22331,6.32662 3.50573,6.99674 3.50573,8.31833 0,2.44049 -1.08445,4.64304 -2.86543,5.81977 -0.53407,0.35287 -7.04322,3.77336 -14.46478,7.60108 -7.4215596,3.82773 -13.7616396,7.2007 -14.0890596,7.4955 -1.10126,0.99151 -0.83427,1.91683 2.32808,8.06866 1.60867,3.12939 2.88781,5.93228 2.84427,6.23243 -0.0597,0.4116 -1.28032,1.1768 -4.97392,3.11815 -4.88667,2.56842 -5.79292,2.89654 -6.27775,2.27294 z M 54.456943,194.55179 c -1.68915,-0.55043 -2.62167,-1.12216 -3.59261,-2.20262 -0.937,-1.0427 -6.27499,-11.07025 -6.85508,-12.87746 -0.83024,-2.58652 0.25681,-5.92579 2.47515,-7.60334 2.05816,-1.55642 30.00455,-15.89406 30.79534,-15.79926 0.88886,0.10655 1.70739,1.67338 1.86461,3.56921 0.099,1.19367 -0.0119,1.68231 -0.69795,3.07589 -0.44859,0.91123 -1.08865,1.90852 -1.42234,2.2162 -0.33369,0.30769 -4.82763,2.73848 -9.98654,5.40177 -5.15891,2.66329 -9.59399,5.05649 -9.85573,5.31824 -0.6816,0.68159 -0.59131,1.5829 0.34659,3.46 0.96352,1.92838 1.72911,2.83672 2.39093,2.83672 0.26144,0 6.34264,-3.02696 13.51378,-6.72658 7.17114,-3.69962 13.73932,-6.92749 14.59596,-7.17304 1.88833,-0.54128 3.66646,-0.36888 5.42406,0.5259 2.73266,1.39117 4.59972,4.83701 3.27102,6.03694 -0.60346,0.54497 -36.04746,18.87929 -37.74316,19.52361 -1.80472,0.68575 -3.28287,0.82227 -4.52403,0.41782 z m 53.789657,-26.826 c -0.83237,-0.96434 -8.454897,-16.07362 -8.826327,-17.49544 -0.67138,-2.56995 0.33297,-5.30146 2.661667,-7.23893 0.43656,-0.36322 5.08,-2.89167 10.31875,-5.61878 17.46671,-9.09255 18.71178,-9.77259 18.98438,-10.369 0.20567,-0.44997 0.0755,-0.97473 -0.61179,-2.46575 -0.9248,-2.00636 -1.55475,-2.65116 -2.59009,-2.65116 -0.34991,0 -4.99662,2.25064 -10.32602,5.00143 -5.3294,2.75079 -12.71942,6.5666 -16.42228,8.47957 -7.833607,4.04702 -7.978937,4.07934 -8.981017,1.99712 -0.95075,-1.97554 -1.07788,-4.88742 -0.28685,-6.57027 1.19856,-2.54982 1.26945,-2.59075 30.684707,-17.71537 l 8.33438,-4.28533 2.0039,-0.002 c 1.77006,-0.002 2.15601,0.0916 3.30729,0.80004 1.21364,0.74683 1.46127,1.10204 3.59643,5.15937 5.9278,11.2642 6.29187,13.86495 2.32995,16.64408 -1.71183,1.20079 -2.25555,1.91895 -1.91437,2.5286 0.24725,0.44181 4.81954,3.79374 10.18982,7.4701 2.81233,1.92527 3.63696,2.62137 3.63331,3.06711 -0.004,0.47826 -0.81153,0.99405 -4.73504,3.024 -3.23873,1.67568 -5.01322,2.4474 -5.62752,2.4474 -1.0236,0 -1.67334,-0.392 -10.19636,-6.15156 -4.77261,-3.22517 -5.93471,-3.89983 -6.69478,-3.88657 -1.35493,0.0236 -13.23294,6.26876 -13.69001,7.19784 -0.4835,0.9828 -0.0198,2.1573 3.53157,8.9445 1.66156,3.17562 3.02102,5.95064 3.02102,6.16682 0,0.21617 -0.32743,0.62483 -0.72761,0.90813 -1.02571,0.72613 -9.77434,5.07719 -10.20865,5.07719 -0.19735,0 -0.53866,-0.20836 -0.75846,-0.46302 z m -70.696127,-0.56562 c -0.77591,-0.85738 -1.48207,-3.12325 -1.48207,-4.75555 0,-1.82248 0.34301,-2.94652 1.35244,-4.43186 0.66635,-0.98052 1.54376,-1.50016 8.88772,-5.26375 4.48161,-2.29671 9.10088,-4.67929 10.26505,-5.29462 7.30791,-3.86264 20.79277,-10.711 21.09066,-10.711 0.80331,0 1.51542,0.87596 2.07214,2.54888 0.7546,2.26758 0.62416,4.57811 -0.35215,6.23799 -1.19018,2.02349 1.08918,0.73644 -26.25024,14.82222 -4.51114,2.32422 -9.53246,4.92816 -11.15847,5.78651 -1.62602,0.85836 -3.18515,1.56065 -3.46473,1.56065 -0.27958,0 -0.71174,-0.22476 -0.96035,-0.49947 z M 192.02607,122.27272 c -0.71978,-0.36979 -1.56684,-1.00192 -1.88233,-1.40473 -0.84489,-1.07872 -5.88812,-10.78595 -6.46832,-12.45029 -1.35681,-3.89199 0.0915,-6.59618 4.83097,-9.019927 1.94051,-0.99238 2.38141,-1.12639 2.91042,-0.88464 0.44246,0.20219 1.41756,1.827467 3.35891,5.598607 1.50448,2.92254 2.90383,5.45348 3.10965,5.6243 0.20585,0.17082 0.66207,0.31058 1.01386,0.31058 0.35179,0 5.9477,-2.74489 12.43539,-6.09977 6.48766,-3.35487 12.4547,-6.346317 13.26009,-6.647647 1.62063,-0.60635 3.79516,-0.70952 5.17536,-0.24555 1.58721,0.53357 3.33195,2.06534 4.19338,3.681537 0.44387,0.83278 0.80703,1.68509 0.80703,1.89402 0,0.688 -1.13141,1.42339 -6.21771,4.0413 -2.76489,1.42309 -6.2177,3.21069 -7.67291,3.97245 -11.05821,5.78861 -22.66019,11.6513 -23.6424,11.9469 -1.87682,0.56484 -3.71197,0.45316 -5.21139,-0.31714 z m 53.92306,-25.721847 c -0.25466,-0.25576 -2.30061,-4.02934 -4.54655,-8.38573 -3.3419,-6.48217 -4.10316,-8.16366 -4.19155,-9.25842 -0.15489,-1.91859 0.69971,-4.03711 2.17844,-5.40016 1.32273,-1.21924 4.57393,-2.949 5.54284,-2.949 0.84151,0 1.13149,0.4349 4.09982,6.14824 2.59787,5.00025 2.93656,5.49343 3.77254,5.49343 0.55454,0 19.84526,-9.83479 20.66113,-10.53343 0.25466,-0.21808 0.46302,-0.75327 0.46302,-1.18932 0,-0.82366 -7.41387,-15.662821 -8.66003,-17.333369 -1.2624,-1.692365 -1.553,-1.678051 -5.31275,0.2617 -26.00849,13.418439 -24.1432,12.513189 -25.7433,12.493529 -1.83417,-0.0225 -4.6564,-1.25725 -5.45126,-2.38489 -0.88829,-1.2602 -1.66391,-2.949562 -1.66391,-3.624109 0,-0.503148 0.31615,-0.803032 1.52135,-1.443059 10.88906,-5.782699 37.18285,-19.183197 38.00107,-19.367034 2.12535,-0.477539 5.1452,0.751728 6.57646,2.677051 0.59793,0.804347 2.75661,4.913538 11.83817,22.534951 l 2.97485,5.77223 -0.10108,1.78869 c -0.083,1.46874 -0.26561,2.06091 -1.02105,3.31067 -1.21288,2.00655 -1.55498,2.20848 -18.64707,11.00618 -7.7126,3.96987 -15.60094,8.03445 -17.52965,9.03241 -1.9287,0.99795 -3.68487,1.81447 -3.9026,1.81447 -0.21773,0 -0.60423,-0.20926 -0.85889,-0.46503 z m -69.21392,-1.34199 c -0.84754,-0.93653 -1.83451,-3.81447 -1.84179,-5.37053 -0.008,-1.74148 0.87551,-3.51414 2.26994,-4.55365 0.46969,-0.35014 4.4854,-2.51226 8.92379,-4.80469 4.43839,-2.29243 11.34401,-5.86574 15.34583,-7.94068 10.87816,-5.64031 13.15331,-6.74427 13.89925,-6.74427 0.5851,0 0.81,0.27599 1.62748,1.99741 0.84958,1.78898 0.93385,2.15974 0.80751,3.55297 -0.1552,1.71179 -1.12808,3.78195 -2.27674,4.84464 -0.38282,0.35416 -3.43448,2.04775 -6.78146,3.76353 -3.34697,1.71577 -9.12151,4.69087 -12.83229,6.61132 -3.71078,1.92046 -9.20199,4.75991 -12.20271,6.30989 -3.00069,1.54999 -5.69093,2.81816 -5.97826,2.81816 -0.28734,0 -0.71959,-0.21785 -0.96055,-0.4841 z m 124.02463,-26.60332 c -0.0846,-0.22054 0.0465,-1.09195 0.29149,-1.93647 2.16303,-7.457199 16.43179,-51.763186 17.06708,-52.994966 0.26324,-0.510411 0.87601,-1.304031 1.36171,-1.763601 0.82857,-0.784016 11.59317,-6.5459525 12.8266,-6.8656735 1.21886,-0.31594 1.32443,-0.742295 -4.02563,16.2586975 -3.11574,9.900894 -3.25689,10.44611 -2.88865,11.158228 0.39466,0.763172 1.78467,1.432041 4.36777,2.101744 2.75167,0.713407 22.20844,7.185157 22.36547,7.43925 0.33404,0.540464 -0.70395,1.203267 -6.59151,4.209008 l -5.95188,3.038586 -2.20123,-0.0092 c -1.89169,-0.0079 -2.63954,-0.16388 -5.31868,-1.10911 -3.94944,-1.393386 -9.44618,-2.974456 -10.341,-2.974456 -0.52777,0 -0.80079,0.228819 -1.18385,0.992187 -0.50673,1.009761 -1.89228,5.127535 -3.59979,10.698369 -1.40671,4.589477 -1.98991,5.152607 -9.20928,8.892487 -6.30523,3.26633 -6.7452,3.44721 -6.96862,2.86496 z m -0.76957,-30.726547 c -0.14552,-0.05116 -2.4077,-0.76695 -5.02708,-1.590638 -7.15015,-2.248434 -12.65497,-4.075417 -13.06928,-4.337529 -0.20312,-0.128495 -0.30231,-0.408138 -0.22047,-0.621429 0.0819,-0.213292 3.01368,-1.832653 6.51517,-3.598579 6.33437,-3.194627 6.37572,-3.210775 8.22273,-3.210775 1.41216,0 2.56889,0.230138 4.8343,0.961826 1.63788,0.529005 3.1268,1.079364 3.3087,1.223022 0.1819,0.143657 0.33073,0.667142 0.33073,1.163298 0,1.110567 -2.78366,9.637019 -3.24104,9.927439 -0.33441,0.212325 -1.1675,0.254323 -1.65376,0.08337 z"
       id="path24" />
  </g>
</svg>
